<svg width="32" height="32" viewBox="0 0 32 32" fill="none" xmlns="http://www.w3.org/2000/svg">
<path d="M4 26V8C4 7.73478 4.10536 7.48043 4.29289 7.29289C4.48043 7.10536 4.73478 7 5 7H11.6625C11.8787 7.00089 12.089 7.07098 12.2625 7.2L15.7375 9.8C15.911 9.92902 16.1213 9.99911 16.3375 10H25C25.2652 10 25.5196 10.1054 25.7071 10.2929C25.8946 10.4804 26 10.7348 26 11V14H8L7.5 15L4 26Z" fill="#F0BC5E"/>
<path d="M4 26H3.25C3.25 26.3698 3.51953 26.6844 3.88494 26.7411C4.25035 26.7979 4.60257 26.5798 4.71469 26.2274L4 26ZM5 7V7.75V7ZM11.6625 7L11.6656 6.25H11.6625V7ZM12.2625 7.2L12.7118 6.59948L12.71 6.59815L12.2625 7.2ZM15.7375 9.8L15.2882 10.4005L15.29 10.4018L15.7375 9.8ZM16.3375 10L16.3344 10.75H16.3375V10ZM26 14V14.75C26.4142 14.75 26.75 14.4142 26.75 14H26ZM7.5 15L6.82918 14.6646C6.81177 14.6994 6.79711 14.7355 6.78531 14.7726L7.5 15ZM8 14V13.25C7.71592 13.25 7.45622 13.4105 7.32918 13.6646L8 14ZM4.75 26V8H3.25V26H4.75ZM4.75 8C4.75 7.9337 4.77634 7.87011 4.82322 7.82322L3.76256 6.76256C3.43438 7.09075 3.25 7.53587 3.25 8H4.75ZM4.82322 7.82322C4.87011 7.77634 4.9337 7.75 5 7.75V6.25C4.53587 6.25 4.09075 6.43438 3.76256 6.76256L4.82322 7.82322ZM5 7.75H11.6625V6.25H5V7.75ZM11.6594 7.74999C11.7155 7.75022 11.77 7.76839 11.815 7.80185L12.71 6.59815C12.408 6.37356 12.042 6.25155 11.6656 6.25001L11.6594 7.74999ZM11.8132 7.80052L15.2882 10.4005L16.1868 9.19948L12.7118 6.59948L11.8132 7.80052ZM15.29 10.4018C15.592 10.6264 15.958 10.7484 16.3344 10.75L16.3406 9.25001C16.2845 9.24978 16.23 9.23161 16.185 9.19815L15.29 10.4018ZM16.3375 10.75H25V9.25H16.3375V10.75ZM25 10.75C25.0663 10.75 25.1299 10.7763 25.1768 10.8232L26.2374 9.76256C25.9092 9.43437 25.4641 9.25 25 9.25V10.75ZM25.1768 10.8232C25.2237 10.8701 25.25 10.9337 25.25 11H26.75C26.75 10.5359 26.5656 10.0908 26.2374 9.76256L25.1768 10.8232ZM25.25 11V14H26.75V11H25.25ZM4.71469 26.2274L8.21469 15.2274L6.78531 14.7726L3.28531 25.7726L4.71469 26.2274ZM8.17082 15.3354L8.67082 14.3354L7.32918 13.6646L6.82918 14.6646L8.17082 15.3354ZM8 14.75H26V13.25H8V14.75Z" fill="black"/>
<path d="M4 26L7.775 14.6875C7.8408 14.4875 7.96806 14.3133 8.13865 14.1899C8.30923 14.0664 8.51443 14 8.725 14H28.6125C28.7706 14 28.9265 14.0375 29.0673 14.1094C29.2082 14.1813 29.3299 14.2856 29.4227 14.4137C29.5154 14.5418 29.5764 14.69 29.6007 14.8463C29.625 15.0025 29.6119 15.1623 29.5625 15.3125L26 26H4Z" stroke="black" stroke-width="1.5" stroke-linecap="round" stroke-linejoin="round"/>
</svg>
