<svg width="32" height="32" viewBox="0 0 32 32" fill="none" xmlns="http://www.w3.org/2000/svg">
<path d="M19 14H24" stroke="black" stroke-width="1.5" stroke-linecap="round" stroke-linejoin="round"/>
<path d="M19 18H24" stroke="black" stroke-width="1.5" stroke-linecap="round" stroke-linejoin="round"/>
<path d="M27 6H5C4.44772 6 4 6.44772 4 7V25C4 25.5523 4.44772 26 5 26H27C27.5523 26 28 25.5523 28 25V7C28 6.44772 27.5523 6 27 6Z" stroke="black" stroke-width="1.5" stroke-linecap="round" stroke-linejoin="round"/>
<rect x="7" y="10" width="8" height="11" fill="#F0BC5E"/>
<path d="M10.4292 15.5172C10.6533 15.98 11.0276 16.3533 11.491 16.5762C11.5251 16.5924 11.5629 16.5994 11.6007 16.5965C11.6384 16.5937 11.6747 16.581 11.706 16.5599L12.3866 16.1052C12.4167 16.0848 12.4514 16.0724 12.4876 16.0691C12.5238 16.0657 12.5602 16.0716 12.5935 16.0862L13.8676 16.6334C13.9111 16.6515 13.9475 16.6834 13.9711 16.7243C13.9947 16.7651 14.0043 16.8126 13.9982 16.8593C13.9579 17.1745 13.804 17.4642 13.5655 17.6741C13.327 17.8841 13.0202 17.9999 12.7024 18C11.7205 18 10.7787 17.6099 10.0844 16.9156C9.39007 16.2213 9 15.2795 9 14.2976C9.00007 13.9798 9.11592 13.673 9.32587 13.4345C9.53582 13.196 9.82549 13.0421 10.1407 13.0018C10.1874 12.9957 10.2349 13.0053 10.2757 13.0289C10.3166 13.0525 10.3485 13.0889 10.3666 13.1324L10.9138 14.4092C10.928 14.442 10.934 14.4777 10.9312 14.5133C10.9283 14.5489 10.9167 14.5833 10.8975 14.6134L10.4428 15.3049C10.4226 15.3361 10.4107 15.3721 10.4083 15.4093C10.406 15.4464 10.4132 15.4836 10.4292 15.5172Z" fill="black"/>
</svg>
