<svg width="32" height="32" viewBox="0 0 32 32" fill="none" xmlns="http://www.w3.org/2000/svg">
<path d="M5 25.5V5.5L8.5 5L10 5.5V26.5H6L5 25.5Z" fill="#F0BC5E"/>
<path d="M14 19H22" stroke="black" stroke-width="1.5" stroke-linecap="round" stroke-linejoin="round"/>
<path d="M12.5 15L15.6198 11.139C15.6586 11.095 15.7048 11.06 15.7557 11.0361C15.8067 11.0123 15.8614 11 15.9167 11C15.9719 11 16.0266 11.0123 16.0776 11.0361C16.1286 11.06 16.1748 11.095 16.2135 11.139L18.5365 13.7363C18.5752 13.7803 18.6214 13.8153 18.6724 13.8391C18.7234 13.863 18.7781 13.8753 18.8333 13.8753C18.8886 13.8753 18.9433 13.863 18.9943 13.8391C19.0452 13.8153 19.0914 13.7803 19.1302 13.7363L20.2031 12.5366C20.2419 12.4926 20.2881 12.4577 20.3391 12.4338C20.39 12.4099 20.4447 12.3977 20.5 12.3977C20.5553 12.3977 20.61 12.4099 20.6609 12.4338C20.7119 12.4577 20.7581 12.4926 20.7969 12.5366L23 15H12.5Z" fill="#F0BC5E"/>
<path d="M21.25 10.5C21.9404 10.5 22.5 9.94036 22.5 9.25C22.5 8.55964 21.9404 8 21.25 8C20.5596 8 20 8.55964 20 9.25C20 9.94036 20.5596 10.5 21.25 10.5Z" fill="#F0BC5E"/>
<path d="M14 23H22" stroke="black" stroke-width="1.5" stroke-linecap="round" stroke-linejoin="round"/>
<path d="M26 5H6C5.44772 5 5 5.44772 5 6V26C5 26.5523 5.44772 27 6 27H26C26.5523 27 27 26.5523 27 26V6C27 5.44772 26.5523 5 26 5Z" stroke="black" stroke-width="1.5" stroke-linecap="round" stroke-linejoin="round"/>
<path d="M10 5V27" stroke="black" stroke-width="1.5" stroke-linecap="round" stroke-linejoin="round"/>
</svg>
